<svg width="30" height="29" viewBox="0 0 30 29" fill="none" xmlns="http://www.w3.org/2000/svg">
<path fill-rule="evenodd" clip-rule="evenodd" d="M11.25 15.3305C15.3819 15.3305 18.6939 11.9756 18.6939 7.79026C18.6939 3.60494 15.3819 0.25 11.25 0.25C7.11814 0.25 3.80605 3.60494 3.80605 7.79026C3.80605 11.9756 7.11814 15.3305 11.25 15.3305ZM11.25 19.0228C5.18134 19.0228 0 19.9931 0 23.8697C0 27.7447 5.14981 28.75 11.25 28.75C17.3172 28.75 22.5 27.7797 22.5 23.9031C22.5 20.0265 17.3502 19.0228 11.25 19.0228ZM26.8469 10.8818H28.6515C29.3944 10.8818 30 11.496 30 12.2492C30 13.0025 29.3944 13.6166 28.6515 13.6166H26.8469V15.3826C26.8469 16.1358 26.2428 16.75 25.4985 16.75C24.7557 16.75 24.15 16.1358 24.15 15.3826V13.6166H22.3485C21.6041 13.6166 21 13.0025 21 12.2492C21 11.496 21.6041 10.8818 22.3485 10.8818H24.15V9.11742C24.15 8.36417 24.7557 7.75 25.4985 7.75C26.2428 7.75 26.8469 8.36417 26.8469 9.11742V10.8818Z" fill="white"/>
</svg>
