<svg width="30" height="30" viewBox="0 0 30 30" fill="none" xmlns="http://www.w3.org/2000/svg">
<path d="M15.03 0C6.315 0 0 7.11 0 15C0 17.52 0.735 20.115 2.025 22.485C2.265 22.875 2.295 23.37 2.13 23.835L1.125 27.195C0.9 28.005 1.59 28.605 2.355 28.365L5.385 27.465C6.21 27.195 6.855 27.54 7.6215 28.005C9.8115 29.295 12.54 29.955 15 29.955C22.44 29.955 30 24.21 30 14.955C30 6.975 23.55 0 15.03 0Z" fill="white"/>
<path fill-rule="evenodd" clip-rule="evenodd" d="M14.9709 16.9352C13.9059 16.9202 13.0509 16.0652 13.0509 15.0002C13.0509 13.9502 13.9209 13.0802 14.9709 13.0952C16.0359 13.0952 16.8909 13.9502 16.8909 15.0152C16.8909 16.0652 16.0359 16.9352 14.9709 16.9352ZM8.05525 16.9351C7.00525 16.9351 6.13525 16.0651 6.13525 15.0151C6.13525 13.9501 6.99025 13.0951 8.05525 13.0951C9.12025 13.0951 9.97525 13.9501 9.97525 15.0151C9.97525 16.0651 9.12025 16.9201 8.05525 16.9351ZM19.9656 15.0152C19.9656 16.0652 20.8206 16.9352 21.8856 16.9352C22.9506 16.9352 23.8056 16.0652 23.8056 15.0152C23.8056 13.9502 22.9506 13.0952 21.8856 13.0952C20.8206 13.0952 19.9656 13.9502 19.9656 15.0152Z" fill="#F68D2C"/>
</svg>
