<svg width="24" height="24" viewBox="0 0 24 24" fill="none" xmlns="http://www.w3.org/2000/svg">
<path d="M2.27509 23.8498C1.68667 23.884 1.10799 23.6884 0.661067 23.3042C-0.220356 22.4175 -0.220356 20.9855 0.661067 20.0988L19.9613 0.798488C20.8781 -0.0593523 22.3166 -0.0116654 23.1745 0.905091C23.9502 1.73411 23.9954 3.00833 23.2803 3.8902L3.86635 23.3042C3.42519 23.6828 2.85579 23.8781 2.27509 23.8498Z" fill="#2F0899"/>
<path d="M21.5525 23.8498C20.9562 23.8473 20.3846 23.6106 19.9612 23.1906L0.660883 3.89018C-0.155709 2.93659 -0.0446888 1.50149 0.9089 0.684824C1.76 -0.0440299 3.01521 -0.0440299 3.86624 0.684824L23.2802 19.9852C24.1967 20.8432 24.2441 22.2818 23.3861 23.1984C23.3519 23.2348 23.3167 23.2701 23.2802 23.3042C22.8048 23.7176 22.1792 23.9152 21.5525 23.8498Z" fill="#2F0899"/>
</svg>
