<svg width="16" height="16" viewBox="0 0 16 16" fill="none" xmlns="http://www.w3.org/2000/svg">
<rect width="16" height="16" fill="white"/>
<path d="M9.82759 13L7.76245 9.49284H6.87739V13H5V4H8.51341C9.23755 4 9.85441 4.12464 10.364 4.37392C10.8736 4.61461 11.2535 4.94556 11.5038 5.36676C11.7631 5.77937 11.8927 6.24355 11.8927 6.75931C11.8927 7.35244 11.7139 7.88968 11.3563 8.37106C10.9987 8.84384 10.4668 9.17049 9.76054 9.351L12 13H9.82759ZM6.87739 8.13897H8.44636C8.95594 8.13897 9.33589 8.02292 9.58621 7.79083C9.83653 7.55014 9.96169 7.2192 9.96169 6.79799C9.96169 6.38539 9.83653 6.06734 9.58621 5.84384C9.33589 5.61175 8.95594 5.4957 8.44636 5.4957H6.87739V8.13897Z" fill="#2F0899"/>
</svg>
