<svg width="61" height="61" viewBox="0 0 61 61" fill="none" xmlns="http://www.w3.org/2000/svg">
<path d="M52.7799 0H8.21993C3.68028 0 0 3.6801 0 8.21987V52.7798C0 57.3196 3.68013 60.9997 8.21993 60.9997H30.1967L30.2342 39.2017H24.571C23.835 39.2017 23.2377 38.6066 23.2349 37.8707L23.2077 30.8443C23.2049 30.1043 23.804 29.5029 24.544 29.5029H30.1969V22.7136C30.1969 14.8347 35.0088 10.5446 42.0374 10.5446H47.8048C48.5427 10.5446 49.1411 11.1428 49.1411 11.8809V17.8056C49.1411 18.5433 48.5432 19.1414 47.8056 19.1418L44.2662 19.1435C40.4438 19.1435 39.7037 20.9598 39.7037 23.6254V29.503H48.1027C48.903 29.503 49.5239 30.2019 49.4296 30.9966L48.5968 38.023C48.5171 38.6954 47.9469 39.202 47.2699 39.202H39.7411L39.7037 61H52.7802C57.3199 61 61 57.3199 61 52.7803V8.21987C60.9999 3.6801 57.3197 0 52.7799 0Z" fill="white"/>
</svg>
