<svg width="43" height="31" viewBox="0 0 43 31" fill="none" xmlns="http://www.w3.org/2000/svg">
<path d="M20.9848 20.2017C14.3723 20.2017 8.79297 21.2822 8.79297 25.4524C8.79297 29.6243 14.4083 30.6668 20.9848 30.6668C27.5972 30.6668 33.1766 29.5863 33.1766 25.4161C33.1766 21.2442 27.5612 20.2017 20.9848 20.2017Z" fill="white"/>
<path d="M20.9858 16.2285C25.4633 16.2285 29.0536 12.6175 29.0536 8.11424C29.0536 3.6092 25.4633 0 20.9858 0C16.5082 0 12.918 3.6092 12.918 8.11424C12.918 12.6175 16.5082 16.2285 20.9858 16.2285Z" fill="white"/>
<path d="M38.5027 9.64932C39.6612 5.0925 36.2648 1 31.94 1C31.4698 1 31.0202 1.05178 30.5808 1.13981C30.5225 1.15362 30.4572 1.18296 30.4229 1.23474C30.3834 1.30034 30.4126 1.38836 30.4555 1.44532C31.7547 3.27841 32.5012 5.51021 32.5012 7.90599C32.5012 10.2017 31.8165 12.342 30.6151 14.1181C30.4916 14.3011 30.6014 14.5479 30.8194 14.5859C31.1214 14.6394 31.4303 14.667 31.7461 14.6756C34.8953 14.7585 37.7219 12.72 38.5027 9.64932Z" fill="white"/>
<path d="M41.801 20.7324C41.2244 19.4965 39.8326 18.649 37.7165 18.233C36.7177 17.9879 34.0147 17.6427 31.5005 17.6893C31.4627 17.6945 31.4421 17.7204 31.4387 17.7377C31.4335 17.7618 31.4438 17.8032 31.4936 17.8291C32.6555 18.4074 37.1467 20.9222 36.5821 26.2264C36.5581 26.456 36.7417 26.6545 36.97 26.62C38.0752 26.4612 40.9189 25.8467 41.801 23.9325C42.2884 22.921 42.2884 21.7456 41.801 20.7324Z" fill="white"/>
<path d="M11.5854 1.49455C11.1478 1.40479 10.6964 1.35474 10.2262 1.35474C5.9014 1.35474 2.50507 5.44724 3.66521 10.0041C4.44436 13.0747 7.27092 15.1132 10.4201 15.0304C10.7359 15.0217 11.0465 14.9924 11.3469 14.9406C11.5648 14.9026 11.6747 14.6558 11.5511 14.4728C10.3498 12.695 9.665 10.5564 9.665 8.26073C9.665 5.86322 10.4133 3.63142 11.7124 1.80006C11.7536 1.7431 11.7845 1.65507 11.7433 1.58948C11.709 1.53597 11.6455 1.50836 11.5854 1.49455Z" fill="white"/>
<path d="M4.44965 18.2326C2.33359 18.6486 0.943475 19.4961 0.366835 20.7319C-0.122278 21.7451 -0.122278 22.9206 0.366835 23.9338C1.24896 25.8463 4.09268 26.4625 5.19791 26.6195C5.42616 26.6541 5.60808 26.4573 5.58405 26.226C5.01942 20.9235 9.51069 18.4087 10.6743 17.8304C10.7223 17.8028 10.7326 17.7631 10.7275 17.7372C10.724 17.72 10.7052 17.6941 10.6674 17.6906C8.15147 17.6423 5.45019 17.9875 4.44965 18.2326Z" fill="white"/>
</svg>
