<svg width="61" height="61" viewBox="0 0 61 61" fill="none" xmlns="http://www.w3.org/2000/svg">
<path d="M52.6818 0H8.31818C3.72418 0 0 3.72418 0 8.31818V52.6818C0 57.2758 3.72418 61 8.31818 61H52.6818C57.2758 61 61 57.2758 61 52.6818V8.31818C61 3.72418 57.2758 0 52.6818 0Z" fill="#2F0899"/>
<path d="M21.9739 16.6364C21.9739 17.6646 21.669 18.6697 21.0977 19.5247C20.5265 20.3796 19.7145 21.046 18.7646 21.4395C17.8146 21.833 16.7693 21.9359 15.7608 21.7353C14.7523 21.5347 13.826 21.0396 13.0989 20.3125C12.3718 19.5854 11.8767 18.6591 11.6761 17.6506C11.4755 16.6421 11.5784 15.5968 11.9719 14.6468C12.3654 13.6969 13.0318 12.8849 13.8867 12.3137C14.7417 11.7424 15.7468 11.4375 16.775 11.4375C18.1539 11.4375 19.4762 11.9852 20.4512 12.9602C21.4262 13.9352 21.9739 15.2575 21.9739 16.6364Z" fill="white"/>
<path d="M20.795 25.301V48.2696C20.7959 48.4391 20.7633 48.607 20.6991 48.7638C20.6349 48.9206 20.5403 49.0632 20.4209 49.1833C20.3014 49.3035 20.1593 49.3988 20.0028 49.4639C19.8464 49.5289 19.6786 49.5624 19.5092 49.5624H14.0296C13.8601 49.5629 13.6923 49.5298 13.5356 49.4652C13.379 49.4006 13.2367 49.3056 13.1169 49.1858C12.997 49.066 12.9021 48.9237 12.8375 48.767C12.7728 48.6104 12.7398 48.4425 12.7402 48.2731V25.301C12.7402 24.9591 12.8761 24.6311 13.1179 24.3894C13.3597 24.1476 13.6876 24.0117 14.0296 24.0117H19.5092C19.8505 24.0126 20.1776 24.1489 20.4186 24.3906C20.6597 24.6323 20.795 24.9597 20.795 25.301Z" fill="white"/>
<path d="M49.4373 37.2588V48.3775C49.4378 48.5332 49.4074 48.6876 49.348 48.8316C49.2886 48.9756 49.2013 49.1065 49.0911 49.2166C48.981 49.3268 48.8501 49.4141 48.7061 49.4735C48.5621 49.5329 48.4077 49.5632 48.252 49.5628H42.3599C42.2041 49.5632 42.0498 49.5329 41.9058 49.4735C41.7617 49.4141 41.6309 49.3268 41.5207 49.2166C41.4106 49.1065 41.3233 48.9756 41.2639 48.8316C41.2045 48.6876 41.1741 48.5332 41.1746 48.3775V37.6019C41.1746 35.9938 41.6459 30.5592 36.9704 30.5592C33.3485 30.5592 32.6103 34.2781 32.4647 35.9487V48.3775C32.4648 48.6888 32.3423 48.9877 32.1237 49.2095C31.9052 49.4314 31.6081 49.5582 31.2967 49.5628H25.6057C25.4502 49.5628 25.2962 49.5321 25.1526 49.4725C25.009 49.4129 24.8786 49.3255 24.7688 49.2154C24.659 49.1053 24.572 48.9746 24.5128 48.8308C24.4536 48.687 24.4234 48.5329 24.4238 48.3775V25.2009C24.4234 25.0454 24.4536 24.8914 24.5128 24.7476C24.572 24.6038 24.659 24.4731 24.7688 24.363C24.8786 24.2528 25.009 24.1655 25.1526 24.1059C25.2962 24.0463 25.4502 24.0156 25.6057 24.0156H31.2967C31.6111 24.0156 31.9126 24.1405 32.1349 24.3628C32.3572 24.585 32.4821 24.8865 32.4821 25.2009V27.2042C33.8268 25.1871 35.8197 23.6309 40.0724 23.6309C49.4928 23.6309 49.4373 32.4273 49.4373 37.2588Z" fill="white"/>
</svg>
