<svg width="19" height="26" viewBox="0 0 19 26" fill="none" xmlns="http://www.w3.org/2000/svg">
<path fill-rule="evenodd" clip-rule="evenodd" d="M5.06445 1.24613C7.89794 -0.400254 11.3808 -0.371477 14.1877 1.3215C16.967 3.04897 18.6561 6.13198 18.6404 9.44843C18.5757 12.7431 16.7644 15.8402 14.5003 18.2343C13.1935 19.6224 11.7317 20.8498 10.1446 21.8914C9.98114 21.9859 9.8021 22.0492 9.6163 22.0781C9.43748 22.0705 9.26333 22.0177 9.10957 21.9244C6.68658 20.3592 4.56089 18.3613 2.83474 16.0269C1.39036 14.0782 0.569756 11.7239 0.484377 9.2837C0.482501 5.96088 2.23096 2.8925 5.06445 1.24613ZM6.70181 10.6589C7.17844 11.8339 8.30347 12.6004 9.55161 12.6004C10.3693 12.6062 11.1553 12.2787 11.7345 11.6908C12.3137 11.1028 12.638 10.3033 12.6351 9.4704C12.6395 8.19901 11.891 7.05034 10.7391 6.56072C9.58723 6.0711 8.2592 6.33711 7.37508 7.23454C6.49097 8.13198 6.22518 9.48382 6.70181 10.6589Z" fill="#2F0899"/>
<ellipse cx="9.5625" cy="24.6719" rx="6.48438" ry="1.29688" fill="#2F0899"/>
</svg>
