<svg width="38" height="39" viewBox="0 0 38 39" fill="none" xmlns="http://www.w3.org/2000/svg">
<path d="M28.4998 5.25H9.49984C6.00067 5.25 3.1665 8.06833 3.1665 11.5358V27.4642C3.1665 30.9317 6.00067 33.75 9.49984 33.75H28.4998C31.999 33.75 34.8332 30.9317 34.8332 27.4642V11.5358C34.8332 8.06833 31.999 5.25 28.4998 5.25ZM13.4582 11.8525C15.469 11.8525 17.1157 13.4992 17.1157 15.51C17.1157 17.5208 15.469 19.1675 13.4582 19.1675C11.4473 19.1675 9.80067 17.5208 9.80067 15.51C9.80067 13.4992 11.4473 11.8525 13.4582 11.8525ZM19.5857 26.8783C19.4432 27.0367 19.2215 27.1317 18.9998 27.1317H7.9165C7.69484 27.1317 7.47317 27.0367 7.33067 26.8783C7.18817 26.72 7.109 26.4983 7.12484 26.2767C7.394 23.6167 9.51567 21.5108 12.1757 21.2575C13.0148 21.1783 13.8857 21.1783 14.7248 21.2575C17.3848 21.5108 19.5223 23.6167 19.7757 26.2767C19.8073 26.4983 19.7282 26.72 19.5857 26.8783ZM30.0832 27.0208H26.9165C26.2673 27.0208 25.729 26.4825 25.729 25.8333C25.729 25.1842 26.2673 24.6458 26.9165 24.6458H30.0832C30.7323 24.6458 31.2707 25.1842 31.2707 25.8333C31.2707 26.4825 30.7323 27.0208 30.0832 27.0208ZM30.0832 20.6875H23.7498C23.1007 20.6875 22.5623 20.1492 22.5623 19.5C22.5623 18.8508 23.1007 18.3125 23.7498 18.3125H30.0832C30.7323 18.3125 31.2707 18.8508 31.2707 19.5C31.2707 20.1492 30.7323 20.6875 30.0832 20.6875ZM30.0832 14.3542H22.1665C21.5173 14.3542 20.979 13.8158 20.979 13.1667C20.979 12.5175 21.5173 11.9792 22.1665 11.9792H30.0832C30.7323 11.9792 31.2707 12.5175 31.2707 13.1667C31.2707 13.8158 30.7323 14.3542 30.0832 14.3542Z" fill="white"/>
</svg>
