<svg width="35" height="36" viewBox="0 0 35 36" fill="none" xmlns="http://www.w3.org/2000/svg">
<path d="M16.0414 3.4021C8.79352 3.4021 2.90186 9.29377 2.90186 16.5417C2.90186 23.7896 8.79352 29.6813 16.0414 29.6813C23.2894 29.6813 29.181 23.7896 29.181 16.5417C29.181 9.29377 23.2894 3.4021 16.0414 3.4021ZM16.0414 19.8229H11.6664C11.0685 19.8229 10.5727 19.3271 10.5727 18.7292C10.5727 18.1313 11.0685 17.6354 11.6664 17.6354H16.0414C16.6394 17.6354 17.1352 18.1313 17.1352 18.7292C17.1352 19.3271 16.6394 19.8229 16.0414 19.8229ZM20.4164 15.4479H11.6664C11.0685 15.4479 10.5727 14.9521 10.5727 14.3542C10.5727 13.7563 11.0685 13.2604 11.6664 13.2604H20.4164C21.0144 13.2604 21.5102 13.7563 21.5102 14.3542C21.5102 14.9521 21.0144 15.4479 20.4164 15.4479Z" fill="white"/>
<path d="M32.0687 28.1354C31.5875 27.2458 30.5667 26.75 29.1958 26.75C28.1604 26.75 27.2708 27.1729 26.7458 27.9021C26.2208 28.6313 26.1042 29.6083 26.425 30.5854C27.0521 32.4813 28.1458 32.9042 28.7437 32.9771C28.8312 32.9917 28.9187 32.9917 29.0208 32.9917C29.6625 32.9917 30.6542 32.7146 31.6167 31.2708C32.3896 30.1479 32.5354 29.025 32.0687 28.1354Z" fill="white"/>
</svg>
