<svg width="36" height="35" viewBox="0 0 36 35" fill="none" xmlns="http://www.w3.org/2000/svg">
<path d="M32.1411 3.7601C31.3911 3.01489 30.2811 2.73927 29.2461 3.03093L5.11113 9.81073C4.01913 10.1053 3.24513 10.9468 3.03663 12.0143C2.82363 13.1022 3.56763 14.4847 4.53963 15.0622L12.0861 19.5422C12.8601 20.003 13.8591 19.8878 14.4996 19.2636L23.1411 10.8622C23.5761 10.4232 24.2961 10.4232 24.7311 10.8622C25.1661 11.2836 25.1661 11.9705 24.7311 12.408L16.0746 20.8095C15.4326 21.4336 15.3126 22.402 15.7851 23.1559L20.3961 30.5205C20.9361 31.3941 21.8661 31.8914 22.8861 31.8914C23.0061 31.8914 23.1411 31.8913 23.2611 31.8753C24.4311 31.7309 25.3611 30.9566 25.7061 29.8628L32.8611 6.57468C33.1761 5.58302 32.8911 4.50385 32.1411 3.7601Z" fill="white"/>
<path fill-rule="evenodd" clip-rule="evenodd" d="M4.51574 24.5114C4.22774 24.5114 3.93974 24.4049 3.72074 24.1905C3.28124 23.7633 3.28124 23.072 3.72074 22.6447L5.76824 20.6526C6.20774 20.2268 6.92024 20.2268 7.35974 20.6526C7.79774 21.0799 7.79774 21.7726 7.35974 22.1999L5.31074 24.1905C5.09174 24.4049 4.80374 24.5114 4.51574 24.5114ZM10.1575 26.2503C9.86954 26.2503 9.58154 26.1438 9.36254 25.9295C8.92304 25.5022 8.92304 24.8109 9.36254 24.3836L11.41 22.3915C11.8495 21.9657 12.562 21.9657 13.0015 22.3915C13.4395 22.8188 13.4395 23.5115 13.0015 23.9388L10.9525 25.9295C10.7335 26.1438 10.4455 26.2503 10.1575 26.2503ZM10.5381 31.4536C10.7571 31.668 11.0451 31.7745 11.3331 31.7745C11.6211 31.7745 11.9091 31.668 12.1281 31.4536L14.1771 29.463C14.6151 29.0357 14.6151 28.343 14.1771 27.9157C13.7376 27.4899 13.0251 27.4899 12.5856 27.9157L10.5381 29.9078C10.0986 30.3351 10.0986 31.0263 10.5381 31.4536Z" fill="white"/>
</svg>
