<svg width="30" height="31" viewBox="0 0 30 31" fill="none" xmlns="http://www.w3.org/2000/svg">
<path fill-rule="evenodd" clip-rule="evenodd" d="M13.0565 2.77847C12.051 2.77847 11.1956 3.4772 10.9555 4.41897H19.0295C18.7894 3.4772 17.934 2.77847 16.9285 2.77847H13.0565ZM21.3107 4.41897H24.2821C27.4337 4.41897 30 7.01642 30 10.2063C30 10.2063 29.91 11.5567 29.8799 13.4372C29.8769 13.586 29.8049 13.7318 29.6863 13.8199C28.9645 14.3531 28.3042 14.7936 28.2441 14.824C25.7529 16.4949 22.8579 17.6705 19.7739 18.2554C19.5728 18.2948 19.3747 18.19 19.2726 18.0108C18.4082 16.5131 16.7934 15.5379 14.9925 15.5379C13.2036 15.5379 11.5738 16.5025 10.6838 18.0017C10.5803 18.1779 10.3852 18.2797 10.1856 18.2417C7.12706 17.6554 4.23212 16.4812 1.75588 14.8392L0.315158 13.8366C0.195098 13.7607 0.12006 13.624 0.12006 13.4721C0.0750375 12.6974 0 10.2063 0 10.2063C0 7.01642 2.56628 4.41897 5.71786 4.41897H8.67434C8.95948 2.21645 10.8054 0.5 13.0565 0.5H16.9285C19.1796 0.5 21.0255 2.21645 21.3107 4.41897ZM29.4897 16.7229L29.4297 16.7532C26.3982 18.7887 22.7514 20.1406 18.9245 20.7026C18.3842 20.7785 17.8439 20.4292 17.6938 19.8823C17.3637 18.6368 16.2981 17.8165 15.0225 17.8165H15.0075H14.9775C13.7019 17.8165 12.6363 18.6368 12.3062 19.8823C12.1561 20.4292 11.6158 20.7785 11.0755 20.7026C7.24862 20.1406 3.6018 18.7887 0.570285 16.7532C0.555278 16.738 0.405203 16.6469 0.285142 16.7229C0.150075 16.7988 0.150075 16.9811 0.150075 16.9811L0.255127 24.7279C0.255127 27.9177 2.8064 30.5 5.95798 30.5H24.027C27.1786 30.5 29.7299 27.9177 29.7299 24.7279L29.8499 16.9811C29.8499 16.9811 29.8499 16.7988 29.7149 16.7229C29.6398 16.6773 29.5498 16.6925 29.4897 16.7229ZM16.1181 23.0874C16.1181 23.7254 15.6228 24.2266 14.9925 24.2266C14.3772 24.2266 13.8669 23.7254 13.8669 23.0874V21.1279C13.8669 20.5051 14.3772 19.9887 14.9925 19.9887C15.6228 19.9887 16.1181 20.5051 16.1181 21.1279V23.0874Z" fill="white"/>
</svg>
